PathFileType	4	(X/Y/Z)	pose2sim_0-719.trc
DataRate	CameraRate	NumFrames	NumMarkers	Units	OrigDataRate	OrigDataStartFrame	OrigNumFrames
50	50	8	22	m	50	630	720
Frame#	Time	Hip			RHip			RKnee			RAnkle			RBigToe			RSmallToe			RHeel			LHip			LKnee			LAnkle			LBigToe			LSmallToe			LHeel			Neck			Head			Nose			RShoulder			RElbow			RWrist			LShoulder			LElbow			LWrist			
		X1	Y1	Z1	X2	Y2	Z2	X3	Y3	Z3	X4	Y4	Z4	X5	Y5	Z5	X6	Y6	Z6	X7	Y7	Z7	X8	Y8	Z8	X9	Y9	Z9	X10	Y10	Z10	X11	Y11	Z11	X12	Y12	Z12	X13	Y13	Z13	X14	Y14	Z14	X15	Y15	Z15	X16	Y16	Z16	X17	Y17	Z17	X18	Y18	Z18	X19	Y19	Z19	X20	Y20	Z20	X21	Y21	Z21	X22	Y22	Z22	
630	12.6	0.13378332161690765	0.7972436068175428	-0.09259733943905735	0.03712253218264634	0.7864394122401062	-0.09787710314730977	0.012099383859687172	0.4249718870631412	-0.12494972841066572	0.0021968363314476694	0.07046185320971701	-0.14983421441912564	-0.022436536133974536	0.02862918618684795	-0.01784433395179168	-0.06285136085625827	0.03095727017139916	-0.06497587586470649	0.01541396940660354	0.03679999864761276	-0.18333622685970194	0.2343962939039405	0.7815864159873118	-0.09104759235302212	0.26315310249253593	0.425288205822116	-0.12577930124241557	0.26653587864631006	0.07213841117223845	-0.14488476357610458	0.28081508429092294	0.02221589317121304	0.003265626524132395	0.32406740434666803	0.02640691180538074	-0.0443392554934699	0.25407168942989866	0.03091958255084027	-0.17983809476782378	0.13931699621033256	1.3567788957866371	-0.08106190866551782	0.1433301175393082	1.5725982112831582	-0.03952276865723199	0.13530727702474218	1.4504569981537374	0.07930254023535752	-0.015268796788579049	1.2657773844522928	-0.09374948634560575	-0.08658731105267979	1.066655803346283	0.038309505700773766	-0.1250319747675365	0.983025568161298	0.26529683863130876	0.294463362361528	1.2630920998680117	-0.10105133283575035	0.38491520601715784	1.0665215576783456	0.009097400807500253	0.4390157895880555	1.017208013113211	0.2538002368383309
631	12.62	0.13591663895125466	0.7984423247863641	-0.0935075830336037	0.03690703847359227	0.7840251974866881	-0.09979932887994322	0.012053181987607183	0.42330537679416996	-0.12754914803160045	0.002105110789747873	0.07093076097732255	-0.15184285552934962	-0.025760483576400216	0.026906873778771188	-0.01349698477233708	-0.06448018166213519	0.029529282995359108	-0.06561437139913424	0.016744649025296984	0.037217177245770935	-0.18674159302321142	0.2365269054799424	0.7818110963048281	-0.09368673915605454	0.2625307893429436	0.42519428858539116	-0.12490233859859867	0.26460120232685247	0.07261317709037331	-0.1488148458036069	0.2803664988168563	0.02411090634063406	-0.001013080633182095	0.32335391419791615	0.02708432576314797	-0.04651735892423567	0.2551196810240621	0.0353022123552927	-0.17854555867531727	0.1386273691753297	1.3565836357404533	-0.07645633285141148	0.14141237571128834	1.573366546134242	-0.037286016256388416	0.13350176173828407	1.451576264455666	0.08093875704116957	-0.015475493794796607	1.2625627530273589	-0.08969276913290729	-0.08639477766262907	1.061073126828961	0.03408198668918762	-0.12768330527655583	0.9621919288202777	0.26741717818489574	0.29354538234577127	1.2623371599879472	-0.0965706529291773	0.38645464958227965	1.065695023915272	0.002583968629182856	0.4382741589002346	1.008067616424273	0.25452441132794973
632	12.64	0.1345793670639006	0.802554485070742	-0.09028786993229995	0.038854507190144605	0.7903066873544058	-0.09518729514721237	0.013522616748237631	0.42906179626370866	-0.12446460288427792	0.003235922927538804	0.07359063050557484	-0.15274034458018512	-0.031173033759592805	0.03318359931911693	0.010278148286925167	-0.0592220277788844	0.030651017817291994	-0.038106323208161666	0.014629093055369555	0.03114003596392063	-0.19375944561370317	0.23123594861123214	0.7869692161558671	-0.09320204586286529	0.2577441038847453	0.4281835046035551	-0.12101629335510558	0.264566265434026	0.06968262393088286	-0.15254433409399168	0.2801886837036455	0.02832580286161543	0.01688055092012317	0.31756907101398013	0.023080151159011457	-0.027005107937290263	0.2549491870638681	0.03168193343730844	-0.18101277310597705	0.14209861800922274	1.3563782196578802	-0.07039800280734704	0.14172470102888737	1.5732692401352435	-0.024629206256073843	0.1394426799312391	1.4515565557993213	0.07066971193890974	-0.02015571879675046	1.2623572576049364	-0.08109339413167786	-0.09199111733468357	1.0519115111004664	0.02930492669732332	-0.13180542640035922	0.9672448005367336	0.27237869520781205	0.29194554461337413	1.2600949682665399	-0.09484412858303151	0.384533188821	1.058367330565261	0.009249037208033793	0.44670485606333105	0.9951165244506077	0.23367081759849953
633	12.66	0.1350311148859429	0.7974502856320737	-0.0939837198067533	0.03465886079341116	0.7855137081363335	-0.09704589051233226	0.011061768166619069	0.4260648911510762	-0.12266602597793695	-3.093345321890381e-05	0.07260575011732125	-0.1485480865471638	-0.026607797998244268	0.02820469232882494	-0.016998751048888077	-0.06421352897703603	0.03201024162428589	-0.06553930903114732	0.015381157602385334	0.03607625485714533	-0.17822173323887758	0.23584661444408941	0.7819632801791393	-0.0944093515547491	0.2603884724340742	0.4265252880006108	-0.12471396305643004	0.2639061011173913	0.07130909371601779	-0.1474346163389576	0.28214525621612946	0.02282199692086241	0.0074761099732164014	0.3264324348921177	0.025560890913161893	-0.04277110139450326	0.25321607984301764	0.03381273202211301	-0.17903925537713905	0.1380571667548178	1.356766951393467	-0.06747840600852709	0.14080890833287585	1.5747338651536484	-0.029037276134002636	0.13146567105298917	1.4518045437067804	0.08586605734198553	-0.01862937656974965	1.2616675775058397	-0.08563735181457229	-0.08748757071022772	1.050078301743466	0.0359075117762297	-0.12606808002585507	0.9355869927520177	0.2617336291854	0.29050206481361407	1.2622455411675049	-0.0938004359662315	0.3843736916832291	1.0600136239950886	-0.0069902247506466505	0.4383593646310399	0.9810972787551544	0.245949569021554
634	12.68	0.13411187180907144	0.7938870888952962	-0.09136595709344994	0.035705217526502964	0.7827644339309902	-0.09524788451646182	0.010523823258661665	0.4224968502734884	-0.12251645473242065	0.0010575455469176028	0.07412013618569105	-0.14753020010003798	-0.024170091112949252	0.02754948910976049	-0.020164394041408594	-0.06365372304986788	0.032282290025211005	-0.06526967496299015	0.015653726656073463	0.037499459576840116	-0.17891696498506465	0.23209554729436238	0.7807311665226725	-0.09169400918226557	0.26076509465226716	0.42432459927553773	-0.12630694848753568	0.26553534869698586	0.07337668644859026	-0.14623473308254253	0.27772254864156914	0.022697029056202522	0.006229837697439515	0.32026229959709807	0.026374107594897864	-0.04177386684473276	0.25623471957208477	0.03465147641975336	-0.1815908425298693	0.13933490819718802	1.3580313141557625	-0.0654479671351461	0.13830089677859844	1.5732108729316587	-0.029441311501388116	0.12906460571977044	1.4532437964645943	0.07870904851609516	-0.01771211417050409	1.262841547438803	-0.078399715129998	-0.08804809388630824	1.0462456925338548	0.027520948425421535	-0.1286121876875665	0.9242566750569824	0.2367712430550715	0.29339330262237756	1.26118909958814	-0.09496806083061185	0.3864006520550682	1.0554731246992382	-0.01105491179154114	0.4385266492829491	0.9681589788268847	0.23706722541788217
635	12.7	0.1345659938479621	0.7945640799815193	-0.08989642336234313	0.03621942422880177	0.7832739714719551	-0.09108435676729396	0.008859290342959349	0.4247943959714894	-0.12234320628023722	0.0009714574994073282	0.07334186717826935	-0.14806435697893733	-0.03337867915420911	0.028390842565079257	-0.012068903756841859	-0.0672609536629271	0.030525812580714223	-0.061942559448863094	0.01575180866696037	0.03647886978495729	-0.17928708600367138	0.2349269149418544	0.7787440408488655	-0.09028473661771867	0.2612375799053756	0.42419625309904513	-0.12420481167126961	0.2636885458550532	0.07112298224178758	-0.14367877202582385	0.27390985435826004	0.021562831596599052	0.008685849670034166	0.31919918340027414	0.025432041033446498	-0.04235581634577937	0.25443191278002847	0.032532383813169904	-0.17893187527212304	0.1399694971180076	1.3566503016179339	-0.06335754309787857	0.14023936632706843	1.5738741058369354	-0.024871501147224483	0.1271846089949755	1.4521069760320253	0.08048098817791001	-0.01687593921550866	1.2616351749641916	-0.08180631151323363	-0.08779868261651882	1.0414843623217134	0.0196738571461043	-0.13156176785484694	0.9085918180850663	0.2232459288929757	0.2950558240473048	1.259878776806215	-0.0903128064953849	0.3880022324881398	1.0466338565872082	-0.014631943955502923	0.4435048780737201	0.951891964419151	0.22300982824844023
636	12.72	0.1328952981821465	0.8007942516470468	-0.08601080018951159	0.03553946134094726	0.7891344950461259	-0.08584541181347966	0.012278118730899384	0.42746214466032845	-0.12116867832931986	0.002072666590871575	0.07389102513008856	-0.15366024900713596	-0.028781603607382963	0.03131936413828437	0.001694936703673047	-0.058420408291940944	0.03104761515030358	-0.04158082824545001	0.01439693000572967	0.03229214307587213	-0.19438508055475542	0.23050680953069794	0.785721515535966	-0.09102493415208462	0.25922668994090875	0.4296588822929364	-0.11930288807395735	0.26329859175988685	0.07229532215149975	-0.1470637684069874	0.2785182970772531	0.0295113043338171	0.013413045210983788	0.31584763752587713	0.025375822020952024	-0.028740279582061053	0.25277030684307267	0.034132684031111846	-0.18410484700769664	0.14007456901415236	1.3554636490026906	-0.059696711044333606	0.1398025101874354	1.57182203921426	-0.01464114256468276	0.1370595757696003	1.4521892745852105	0.08216025698935311	-0.019023907341681225	1.2598146038706814	-0.07734474240699916	-0.09534047874086787	1.0320711676995753	0.023890986952359517	-0.13884517389947157	0.8978151306081701	0.22290453578991246	0.2915269563376352	1.2605300899325145	-0.08679563205765463	0.38680429295291374	1.043096600829976	-0.006516494551821357	0.45083544305236445	0.9385941509544278	0.20721652172601188
637	12.74	0.13386831704550262	0.7958475499806789	-0.08848173061133274	0.03591838269415264	0.785676189681471	-0.09542587482343919	0.009827079123312479	0.4247968882545541	-0.12198029351672983	0.0006162614012782969	0.07174859483889855	-0.14767681271484634	-0.02808292857016133	0.025257516527699968	-0.018821078011839798	-0.06685662206874199	0.028969282109700744	-0.06564273748329097	0.017707445637855704	0.034960549839553164	-0.172531495553856	0.2353937404518705	0.7822936042538925	-0.0894357543289948	0.2599880927796494	0.42537399059911024	-0.12060321894729661	0.26399420644013477	0.06971519461579243	-0.14560405675293972	0.27809401465243805	0.021739817251469836	0.010379513821356035	0.320994288164745	0.02541087068708961	-0.04213539903427468	0.25491696671241004	0.03370510418442425	-0.17824181169474387	0.14066792615894907	1.3574262770585734	-0.06378599457272491	0.13709281010704108	1.5727389815639865	-0.02250071797408327	0.12754485323794276	1.4511108488409379	0.08641719609986084	-0.016871522506837596	1.2623758349502405	-0.07919636173079365	-0.08942392383164491	1.0324933287301734	0.013156657857337377	-0.1389636234892359	0.8823221230974687	0.1899453708178902	0.2964051995823759	1.2592626880659012	-0.08256381615258598	0.38706933044478464	1.0385879347730487	-0.01804063027195405	0.44822092552958404	0.9191912951493721	0.20000576975453505
